<svg width="48" height="48" viewBox="0 0 48 48" fill="none" xmlns="http://www.w3.org/2000/svg">
<style>
  /* Default: light icon (for no preference or dark mode) */
  path { fill: #FFFFFF; stroke: #FFFFFF; }
  
  /* Light mode: dark icon for contrast */
  @media (prefers-color-scheme: light) {
    path { fill: #000000; stroke: #000000; }
  }
</style>
<path d="M39.6885 10.5C42.3373 10.5 43.9989 12.1382 45.0381 14.5215C46.0838 16.9199 46.4482 19.9824 46.4971 22.5674C46.5454 25.1236 46.0196 29.2318 44.665 32.5088C43.9877 34.1474 43.1207 35.5345 42.0547 36.4258C41.0075 37.3012 39.7598 37.708 38.2422 37.3945H38.2412C36.9551 37.1322 35.9396 36.3803 35.0039 35.335C34.0556 34.2756 33.2406 32.9782 32.3057 31.6416C30.4659 29.0116 28.2309 26.3412 24.002 26.3242H23.998C19.7688 26.3413 17.5341 29.0125 15.6943 31.6426C14.7594 32.9791 13.9443 34.2757 12.9961 35.335C12.0604 36.3803 11.045 37.1322 9.75879 37.3945H9.75781C8.24019 37.708 6.99252 37.3012 5.94531 36.4258C4.87927 35.5345 4.01231 34.1474 3.33496 32.5088C1.98043 29.2318 1.45463 25.1235 1.50293 22.5674C1.55183 19.9825 1.91616 16.9199 2.96191 14.5215C4.00115 12.1382 5.66271 10.5001 8.31152 10.5C9.8431 10.5001 11.0201 11.0823 12.0742 11.9854C13.1495 12.9066 14.0651 14.1306 15.0928 15.4111C17.1154 17.9315 19.4955 20.5628 24 20.2891C28.5048 20.563 30.8855 17.9316 32.9082 15.4111C33.9358 14.1306 34.8506 12.9066 35.9258 11.9854C36.9799 11.0822 38.157 10.5002 39.6885 10.5Z"/>
</svg>

