<svg xmlns="http://www.w3.org/2000/svg" viewBox="0 0 318 72"><path fill="#071317" d="M74.96 69.061c0 .315-.455.225-.455.225-4.523.042-14.454.09-14.589.09s-.514-.176-.514-.341V26.637C44.86 46.183 15.032 67 .555 71.993c-.188.022-.555-.002-.555-.168V54.803c19.74-9.389 36.195-23.95 48.216-39.765H5.297V.233L5.531 0h69.195l.234.233zm24-11.782V15.202h7.094L120.3 43.634l14.246-28.432h7.153V57.28h-6.011V25.72l-13.044 25.667h-4.628L104.972 25.78v31.5zm61.219.721q-3.727 0-6.191-1.262t-3.667-3.366q-1.202-2.105-1.202-4.629 0-2.945 1.503-5.049 1.562-2.165 4.448-3.306 2.945-1.142 6.972-1.142h7.875q0-2.645-.782-4.388-.781-1.743-2.344-2.585-1.503-.9-3.847-.901-2.704 0-4.689 1.322-1.923 1.323-2.344 3.847h-6.071q.361-3.246 2.164-5.47 1.863-2.284 4.749-3.486t6.191-1.203q4.207 0 7.093 1.503 2.945 1.503 4.388 4.268 1.503 2.705 1.503 6.432v18.694h-5.23l-.481-5.11a14.4 14.4 0 0 1-1.563 2.285 8.9 8.9 0 0 1-2.164 1.863q-1.202.781-2.825 1.202-1.563.48-3.486.481m1.142-4.869q1.923 0 3.486-.781a8 8 0 0 0 2.645-2.104 9.2 9.2 0 0 0 1.683-3.066q.601-1.683.661-3.546v-.12h-7.153q-2.584 0-4.207.66-1.563.603-2.284 1.684-.722 1.082-.722 2.525t.662 2.524q.72 1.022 2.043 1.623 1.323.6 3.186.601m22.279 4.148V27.104h5.41l.541 5.71q1.022-2.043 2.584-3.426 1.623-1.443 3.787-2.224 2.225-.782 4.989-.782v6.312h-1.983q-1.924 0-3.607.48a8.3 8.3 0 0 0-3.005 1.564q-1.263 1.082-1.984 2.945t-.721 4.629v14.967zm41.948 0-14.006-16.53 12.683-13.645h7.274l-15.088 15.929.06-4.508 16.651 18.754zm-19.055 0V14h6.011v43.279zm43.174.721q-4.388 0-7.754-1.923-3.366-1.984-5.29-5.53Q234.76 47 234.76 42.25q0-4.747 1.863-8.295 1.924-3.546 5.29-5.53 3.366-2.043 7.814-2.043t7.634 1.983a13.17 13.17 0 0 1 4.929 5.23q1.743 3.246 1.743 7.213v1.322q0 .66-.12 1.443h-24.765v-4.208h18.874q-.18-3.727-2.524-5.83-2.345-2.164-5.831-2.164-2.405 0-4.508 1.082-2.044 1.08-3.306 3.246-1.203 2.103-1.202 5.35v1.682q0 3.366 1.202 5.65 1.262 2.284 3.306 3.487 2.043 1.142 4.448 1.142 2.885 0 4.749-1.262a7.77 7.77 0 0 0 2.825-3.487h6.011a14 14 0 0 1-2.705 5.05q-1.803 2.163-4.569 3.426Q253.213 58 249.667 58m32.665-.721q-2.825 0-4.989-.902-2.103-.902-3.246-3.005-1.082-2.104-1.082-5.71v-15.51h-5.229v-5.05h5.229l.722-7.573h5.289v7.574h8.536v5.049h-8.536V47.72q0 2.585 1.022 3.547 1.082.9 3.727.901h3.486v5.11zm23.581.721q-3.788 0-6.732-1.262-2.886-1.263-4.569-3.547t-2.043-5.35h6.071q.36 1.443 1.202 2.645.901 1.203 2.404 1.924 1.563.72 3.667.721 1.983 0 3.246-.54 1.262-.602 1.863-1.564.661-1.02.661-2.104 0-1.683-.841-2.524-.781-.901-2.404-1.383-1.563-.54-3.847-.961a48 48 0 0 1-3.968-1.022 15.4 15.4 0 0 1-3.486-1.563q-1.563-.962-2.464-2.404-.902-1.503-.902-3.607 0-2.645 1.382-4.689 1.383-2.043 3.908-3.185 2.584-1.203 6.071-1.203 4.988 0 8.054 2.405 3.126 2.345 3.607 6.732h-5.771q-.3-1.983-1.863-3.126-1.502-1.141-4.088-1.142-2.584 0-3.967 1.082-1.382 1.023-1.382 2.645 0 1.082.781 1.924.842.84 2.344 1.442 1.563.54 3.727 1.022 3.126.6 5.65 1.503 2.526.84 4.028 2.585 1.563 1.743 1.563 4.989 0 2.825-1.443 4.989-1.442 2.163-4.148 3.366Q309.579 58 305.913 58"/></svg>
